<?xml version="1.0" encoding="utf-8"?>
<svg xmlns="http://www.w3.org/2000/svg" version="1" viewBox="0 0 1547 231">
	<title>The score of a tune. A treble clef followed by a common time signature, then several notes.</title>
	<path d="M66.151 4.781c-6.476 6.571-12 21.714-12 32.952v3.334l-27.047.19-27.048.286-.095 68.38v68.382l41.047-.19 40.953-.191 2.38 9.81c1.334 5.809 2.286 12.952 2.286 17.523 0 7.048-.19 7.905-3.047 11.429-4.476 5.523-9.62 7.904-17.429 7.904-4.762 0-7.428-.571-9.524-1.904l-2.857-1.905 3.905-1.238c6-1.715 8.286-3.238 10-6.476 2-3.905 1.905-7.905-.476-11.715-8.953-14.571-29.81-4.857-26.572 12.476.477 2.667 2.096 5.143 5.429 8.286 8.286 8.095 21.143 10 32.952 4.953 12.857-5.62 15.905-16.381 10.762-38.762l-2.286-10.286H361.2v26c0 17.238.285 26.19 1.047 26.571 1.62 1.048 2.19-.095 3.048-6.571 1.238-8.571 3.905-13.238 14.285-24 5.429-5.714 10.381-11.905 12.381-15.714l3.334-6.286H986.15l.19 26.095c.191 15.429.667 26 1.239 26 .571 0 1.714-3.047 2.571-6.762 2.286-9.714 4.095-12.571 14.381-23.333 5.524-5.714 10.476-11.905 12.476-15.714l3.238-6.19h260.762c206.476 0 261.333-.287 263.428-1.334l2.667-1.238v-65.62l.095-65.618-2.476-1.62c-2.19-1.428-8.857-1.618-61.524-1.618h-59.047v-8.095c0-6-.286-8-1.238-7.62-.857.19-1.334 3.048-1.524 8l-.286 7.715h-243.904V24.495c-.096-12.857-.286-16.476-1.334-16.19-.857.286-1.333 4.762-1.523 16.571l-.286 16.19H800.246l-.286-7.714c-.19-4.952-.762-7.81-1.524-8-.952-.38-1.333 1.62-1.238 7.62v8.095h-244l-.285-16.19c-.19-11.81-.572-16.286-1.524-16.572-.953-.286-1.238 3.333-1.238 16.19v16.572H91.199l-.095-4.286c0-11.333-7.905-33.048-13.048-35.714C74.15-1.028 71.008-.076 66.15 4.78zM77.58 17.733c4.38 1.62 7.143 14.19 4.571 20.762-.952 2.476-1.143 2.572-10.857 2.572h-10l1.048-3.715c1.523-5.523 5.333-12.666 8.952-16.761 3.238-3.715 3.714-3.905 6.286-2.858zm-21.715 39.62l2.191 12.19-2.667 2.762-2.571 2.762H5.198v-30H53.676l2.19 12.285zM79.2 45.732c0 2.477-15.334 20.381-16.476 19.238-.858-.857-2.381-15.904-1.905-17.904.476-1.81 1.428-2 9.428-2 4.953 0 8.953.285 8.953.666zm186.476 2.762c-2.572 1.81-6 5.334-7.62 7.715-2.57 3.81-2.856 5.333-2.856 11.619v7.238h-176l3.333-6.286c2.762-5.048 5.714-13.143 8.19-22.476.286-.953 19.143-1.238 90.096-1.238h89.714l-4.857 3.428zM444.15 60.02v15.048H281.77l4.762-3.143c6.857-4.476 10.095-9.905 10.095-16.476 0-4.19-.476-5.715-2.38-7.81l-2.477-2.571h152.38v14.952zm106 0v15.048H449.198v-30h100.953v14.952zm247.047 0v15.048h-244v-30h244v14.952zM889.77 48.4c-7.81 5.524-9.619 9.143-9.619 18.571v8.096h-80v-30h94.381L889.77 48.4zm178.381 11.62v15.047H905.77l4.762-3.143c6.857-4.476 10.096-9.905 10.096-16.476 0-4.19-.477-5.715-2.381-7.81l-2.477-2.571h152.381v14.952zm106 0v15.047h-100.952v-30h100.952v14.952zm247.047 0v15.047h-244v-30h244v14.952zm84 .094v14.953l-40.285-.286-40.286-.19-.286-14.762-.285-14.762h81.142v15.047zm14-.095v15.048h-9.047v-30h9.047v14.952zm-1258.57 14c.381.572.19 1.048-.38 1.048a1.057 1.057 0 0 1-1.048-1.048c0-.476.19-.952.38-.952.286 0 .762.476 1.048.952zM45.008 82.305c-6.19 5.619-15.333 16.762-17.81 21.714l-2.094 4H5.199v-30l22.19.095h22.286l-4.667 4.19zm106.667-2.381c-7.238 4.38-13.333 14.19-14.286 22.762l-.476 5.333H72.246l-.952-3.714c-.571-2.095-1.524-6.476-2.19-9.905l-1.143-6.19 4.285-5.048 4.381-5.048h39.048c38.19 0 38.952 0 36 1.81zm103.524 13.143v14.952H151.865l.667-6.667c1.333-13.142 6.762-20.285 15.905-21.047 5.714-.476 9.714.952 12.857 4.38 1.619 1.81 1.524 1.905-2.667 1.905-7.238 0-11.428 6.286-9.143 13.524 1.429 4.286 7.143 7.429 11.62 6.476 4.57-1.047 9.047-6.761 9.047-11.523 0-5.524-2.667-11.62-6.38-14.476l-3.144-2.477h37.238l37.334-.095v15.048zm120.476-13.524c-4.667 2-9.524 6.095-12.19 9.905-1.906 2.952-2.286 4.762-2.286 11.047v7.524h-71.62l-2.285-4.667c-3.143-6.38-11.048-18.285-12.19-18.285-1.905 0-.858 3.523 3.428 10.952 7.428 12.857 7.905 12-6.857 12h-12.476v-30l59.714.095c51.143 0 59.333.19 56.762 1.429zm68.476 13.524v14.952h-55.333l4.571-3.429c9.143-6.952 11.333-17.904 4.762-23.809l-3.048-2.762h49.048v15.048zm106 0v14.952H449.198v-30h100.953v15.048zm247.047 0v14.952h-244v-30h244v15.048zm82.952 0v14.952h-80v-30h80v15.048zm120.476-13.524c-4.571 2-9.428 6.095-12.095 9.905-2 2.952-2.38 4.762-2.38 11.047v7.524h-72.572l-2.286-4.667c-3.143-6.38-11.047-18.285-12.19-18.285-1.905 0-.857 3.523 3.428 10.952 7.429 12.857 7.905 12-6.857 12h-12.476v-30l60.19.095c51.524 0 59.81.19 57.238 1.429zm67.524 13.524v14.952h-54.285l4.57-3.429c9.049-6.952 11.239-17.904 4.763-23.809l-3.048-2.762h48v15.048zm106 0v14.952h-100.952v-30h100.952v15.048zm247.047 0v14.952h-244v-30h244v15.048zm84 0v14.952h-81.047v-30h81.047v15.048zm14 0v14.952h-9.047v-30h9.047v15.048zM65.104 100.495l1.81 7.524H56.055c-6 0-10.857-.095-10.857-.38 0-.858 17.238-15.62 17.714-15.144.286.286 1.238 3.905 2.19 8zm-41.905 10.857c0 .19-.762 2.477-1.62 5.048-1.237 3.524-1.523 7.333-1.237 14.667l.38 10H5.2v-30h8.952c4.953 0 9.048.19 9.048.285zm40.476.858c-4.286 2.38-11.905 10.57-14.095 15.333-1.334 2.857-2.381 6.857-2.381 9.238v4.286H30.913l.476-5.905c.572-6.381 4.19-15.333 8.381-20.762l2.476-3.333h11.715c9.047.095 11.238.285 9.714 1.143zm73.905 3.047c1.428 9.238 7.238 18.381 14.476 22.952l4.476 2.858h-47.143l-.476-4.858c-.857-8.666-6.19-16.761-14.667-22.285l-4.476-2.857h47.143l.667 4.19zm117.619 10.762v15.048l-40.762-.096c-28.095 0-40-.38-38.286-1.047 6.667-2.572 14-13.714 14-21.143 0-5.238-2.857-4.667-4.476.762-3.143 10.666-8.381 16.19-16.476 17.238-2.667.38-4.762 0-6.953-1.333-4.095-2.381-8.666-11.429-9.523-18.667l-.572-5.714H255.2v14.952zm28.761-9.619c-.857 10-13.523 24.667-21.428 24.667h-3.333v-30h25.238l-.477 5.333zm77.239 9.619v15.048h-80.286l2.19-3.238c1.238-1.81 3.524-6.096 5.238-9.524 2.477-5.143 2.953-7.238 2.667-11.715l-.38-5.523h70.571v14.952zm82.952 0v15.048h-48.572l-2.095-4.953c-2.38-5.619-12.286-21.047-13.524-21.047-1.81 0-.571 3.904 3.048 10.095 3.905 6.667 6.19 12 6.19 14.571 0 1.048-2.666 1.334-12 1.334h-12v-30h78.953v14.952zm75.047-11.238c-2.952 2.095-6.19 5.333-7.238 7.238-2 3.905-2.476 13.905-.762 17.143 1.048 1.905.381 1.905-30.476 1.905h-31.524v-30h75.334l-5.334 3.714zm30.953-1.714c0 1.143-.19 2-.476 2s-.953-.857-1.524-2c-.857-1.62-.762-2 .476-2 .857 0 1.524.857 1.524 2zm247.047 8.666V132.4l-2.286-2c-3.619-3.333-6.285-4.381-11.523-4.381-8.858 0-19.81 5.62-23.62 12.095l-1.714 2.953H539.96l4.572-4.572c2.857-2.857 5.047-6.095 5.81-8.762.57-2.285 1.523-4.571 2-5.143.475-.476.856-3.333.856-6.19v-5.333h244v10.666zm82.952 4.286v15.048h-41.238c-32 0-40.857-.286-40-1.238.857-.762 1.238-5.524 1.238-14.953v-13.81h80v14.953zm27.81-9.619c-.857 10-13.524 24.667-21.429 24.667h-3.333v-30h25.238l-.476 5.333zm78.19 9.619v15.048h-81.238l2.19-3.238c1.239-1.81 3.525-6.096 5.239-9.524 2.476-5.143 2.952-7.238 2.666-11.715l-.38-5.523h71.523v14.952zm82 0v15.048h-47.619l-2.095-4.953c-2.381-5.619-12.286-21.047-13.524-21.047-1.714 0-.571 3.904 3.048 10.095 3.905 6.667 6.19 12 6.19 14.571 0 1.048-2.666 1.334-12.476 1.334h-12.476v-30h78.952v14.952zm75.048-11.238c-2.953 2.095-6.19 5.333-7.238 7.238-2 3.905-2.477 13.905-.762 17.143 1.047 1.905.38 1.905-30.476 1.905h-31.524V126.78c0-7.905.286-14.667.571-15.048.381-.38 17.334-.666 37.714-.666h37.048l-5.333 3.714zm30.952-1.714c0 1.143-.19 2-.476 2s-.952-.857-1.524-2c-.857-1.62-.762-2 .476-2 .857 0 1.524.857 1.524 2zm247.047 8.666V132.4l-2.285-2c-3.62-3.333-6.286-4.381-11.524-4.381-8.857 0-19.81 5.62-23.62 12.095l-1.713 2.953H1163.96l4.666-4.572c3.048-3.143 4.953-6.095 5.81-9.047.571-2.381 1.524-4.381 1.905-4.381.476 0 .857-2.667.857-6v-6h244v10.666zm84 4.286v15.048h-41.714c-32.476 0-41.428-.286-40.571-1.238.857-.762 1.238-5.429 1.238-14.286 0-7.238.286-13.429.666-13.81.381-.38 18.572-.666 40.477-.666h39.904v14.952zm14 0v15.048h-9.047v-30h9.047v14.952zm-976.665-8.38c2.762 1.047 1.81 5.237-2 9.523-9.143 10-24.381 14.095-24.381 6.476 0-4.857 8.762-12.19 18.285-15.143 4.953-1.524 6-1.619 8.096-.857zm623.999 0c2.762 1.047 1.81 5.237-2 9.523-9.143 10-24.38 14.095-24.38 6.476 0-4.857 8.761-12.19 18.285-15.143 4.952-1.524 6-1.619 8.095-.857zM85.961 127.732c2.952 1.048 5.523 3.048 8.285 6.572 2.096 2.666 3.905 5.333 3.905 5.81 0 .57-4.286.952-9.428.952h-9.429l-1.524-6.953c-.952-3.81-1.619-7.428-1.619-8 0-1.238 3.334-.666 9.81 1.62zm-13.62 5.81l1.524 7.524h-8.761c-8.096 0-8.762-.19-8.286-1.905 1.047-3.905 10.38-13.048 13.428-13.048.381 0 1.334 3.334 2.096 7.429zm-46.57 18.095c4.856 8.476 12.952 15.81 21.809 20.095l7.047 3.334H5.2v-30h16.666l3.905 6.571zm24.38-3.524c1.714 4 10.286 11.62 14.095 12.476 5.239 1.143 5.524-.952.381-4-4.38-2.571-8.476-7.523-8.476-10.285 0-.857 2.572-1.238 9.334-1.238h9.333l2.667 12.19c2.095 9.524 2.38 12.381 1.428 12.952-2 1.334-15.81.953-21.428-.571-11.715-3.048-21.62-11.143-24.667-20.095l-1.524-4.476h17.619l1.238 3.047zm49.048.286c0 4.571-4.572 13.143-8.857 16.667-2 1.619-3.905 3.047-4.286 2.952-.286 0-1.62-4.571-2.857-10.19-1.334-5.62-2.572-10.858-2.762-11.524-.381-.953 1.81-1.238 9.143-1.238h9.619v3.333zm156 11.619v15.048h-84c-52.667 0-84.19-.381-84.572-.953-.285-.571 1.334-1.905 3.62-3.143 9.142-4.666 18.857-16.762 18.857-23.619l.095-2.285h146v14.952zm106 0v15.048H310.15c-28.095 0-50.952-.381-50.952-.762 0-2 2.857-11.143 4.38-14.286.953-1.905 4.286-6 7.43-9.238l5.618-5.714H361.2v14.952zm28.095-12.476c-1.238 8.19-11.429 20.095-22.857 26.857-1.048.667-1.238-2.476-1.238-14.286v-15.143l12.19.286c11.619.286 12.286.381 11.905 2.286zm54.857 12.476v15.048h-48v-5.238c-.095-2.858-.667-6.572-1.429-8.286-1.047-2.476-1.047-3.62.096-6.857.761-2.096 1.333-5.143 1.333-6.762v-2.857h48v14.952zM757.198 148.4c0 6.476 6.381 11.619 14.381 11.714 8.476 0 20.19-6.285 23.524-12.476l1.428-2.571h83.62v30H449.197v-30h308v3.333zm228.952 11.619v15.048h-51.523c-48.667 0-51.62-.096-51.143-1.715.285-.952.857-3.333 1.238-5.333 1.143-5.81 4.38-11.143 10.285-17.238l5.62-5.714h85.523v14.952zm28.19-12.476c-.57 3.619-4.095 10.095-7.904 14.476-3.524 4.095-14.762 13.048-16.476 13.048-.476 0-.762-6.762-.762-15.048v-15.048l12.667.286c12.19.286 12.761.381 12.476 2.286zm53.81 12.476v15.048h-46.952l-.095-5.238c0-2.858-.667-6.572-1.334-8.286-1.047-2.476-1.047-3.62 0-6.857.762-2.096 1.429-5.143 1.429-6.762v-2.857h46.952v14.952zm313.047-11.619c0 6.476 6.381 11.619 14.381 11.714 8.477 0 20.19-6.285 23.524-12.476l1.429-2.571h84.666v30l-215.809-.286-215.714-.19-.286-14.762-.285-14.762h308.094v3.333zm138 11.619v15.048h-9.047v-30h9.047v14.952zM389.198 170.971c-1.047 3.62-1.428 4.096-4.095 4.096h-3.047l3.714-4.477c2.095-2.476 3.905-4.285 4.095-4.095.286.19-.095 2.19-.667 4.476zm624.952 0c-.952 3.62-1.428 4.096-4.095 4.096h-3.048l3.81-4.477c2-2.476 3.905-4.285 4.095-4.095.19.19-.095 2.19-.762 4.476zm-631.142 11.81c-3.333 4.571-15.524 14.952-16.476 14-1.143-1.143 3.619-9.81 7.619-14.095 3.714-4 4.762-4.667 8.19-4.667h4l-3.333 4.762zm624.952 0c-3.334 4.571-15.524 14.952-16.476 14-1.048-1.143 3.714-9.81 7.714-14.095 3.619-4 4.762-4.667 8.19-4.667h3.905l-3.333 4.762z"/>
	<path d="M306.15 53.067c-1.332 1.333-2 3.333-2 5.904 0 9.334 12.668 10.953 15.525 2.096 2.19-7.048-8.286-13.238-13.524-8zM930.15 53.067c-1.333 1.333-2 3.333-2 5.904 0 9.334 12.667 10.953 15.524 2.096 2.19-7.048-8.286-13.238-13.524-8z"/>
</svg>
