<?xml version="1.0" encoding="utf-8"?>
<svg xmlns="http://www.w3.org/2000/svg" clip-rule="evenodd" fill-rule="evenodd" stroke-linejoin="bevel" viewBox="0 0 2977 400">
	<title>The score of a short tune: A treble clef, followed by the common time signature, then several notes.</title>
	<path d="M67.199 116.332h2833.67M67.199 163.071h2833.67M67.199 209.809h2833.67M67.199 256.547h2833.67M67.199 303.286h2833.67" fill="none" stroke="#000" stroke-width="3.73"/>
	<path d="M851.67 114.463v190.692m1204.87-190.692v190.692m798.713-190.692v190.692" fill="none" stroke="#000" stroke-width="7.46"/>
	<path d="M2889.23 114.463v190.692" fill="none" stroke="#000" stroke-width="23.32"/>
	<path d="M444.835 148.479v154.807m268.508-108.069v154.807m250.213-124.025V81.279m403.02 166.489V98.805m262.749 49.674v154.807m281.99-108.069v154.807m257.121-124.025V81.279m455.574 166.489V98.805" fill="none" stroke="#000" stroke-linecap="round" stroke-width="6.06"/>
	<path d="M482.718 113.958c5.818 0 10.728 1.522 14.727 4.564 3.759 3.286 5.638 7.425 5.638 12.415 0 8.398-4.305 16.248-12.911 23.552-8.726 7.303-18.059 10.954-28 10.954-5.818 0-10.728-1.522-14.727-4.563-3.757-3.287-5.636-7.426-5.636-12.416 0-8.398 4.363-16.248 13.091-23.552 8.484-7.303 17.758-10.954 27.818-10.954m268.509 46.738c5.819 0 10.728 1.522 14.728 4.564 3.757 3.287 5.637 7.426 5.637 12.415 0 8.398-4.304 16.249-12.91 23.553-8.728 7.302-18.062 10.953-28 10.953-5.818 0-10.728-1.521-14.727-4.563-3.758-3.287-5.638-7.426-5.638-12.416 0-8.398 4.364-16.248 13.093-23.552 8.484-7.302 17.756-10.954 27.817-10.954m209.441 60.25c0-2.07-.787-3.835-2.364-5.295-1.576-1.583-3.395-2.374-5.454-2.374-3.638 0-10.97 3.651-22.001 10.954-11.395 7.425-18.364 12.72-20.909 15.885-1.335 1.703-2.001 3.468-2.001 5.295 0 2.067.789 3.832 2.364 5.294 1.454 1.582 3.273 2.373 5.456 2.373 3.515 0 10.908-3.652 22.182-10.954 11.15-7.304 18.059-12.599 20.727-15.884 1.334-1.583 2-3.348 2-5.294m-9.637-13.511c10.425 0 15.636 4.503 15.636 13.511 0 4.38-1.272 9.493-3.817 15.336-2.547 5.72-5.941 10.101-10.182 13.144-9.334 6.329-21.032 9.494-35.092 9.494-10.425 0-15.636-4.504-15.636-13.509 0-4.018 1.272-9.07 3.819-15.155 2.424-5.842 5.818-10.284 10.18-13.328 9.334-6.328 21.032-9.493 35.092-9.493m398.199 23.369c5.818 0 10.727 1.522 14.729 4.563 3.757 3.287 5.635 7.426 5.635 12.416 0 8.398-4.302 16.25-12.91 23.552-8.726 7.303-18.06 10.954-28 10.954-5.818 0-10.726-1.522-14.727-4.564-3.757-3.286-5.636-7.425-5.636-12.415 0-8.398 4.364-16.248 13.091-23.552 8.484-7.303 17.758-10.954 27.818-10.954m317.978-116.846c5.828 0 10.725 1.522 14.728 4.564 3.761 3.286 5.641 7.425 5.641 12.415 0 8.398-4.301 16.248-12.921 23.552-8.714 7.303-18.053 10.954-27.991 10.954-5.818 0-10.728-1.522-14.727-4.563-3.759-3.287-5.638-7.426-5.638-12.416 0-8.398 4.364-16.248 13.091-23.552 8.486-7.303 17.758-10.954 27.817-10.954m281.995 46.738c5.809 0 10.725 1.522 14.728 4.564 3.742 3.287 5.622 7.426 5.622 12.415 0 8.398-4.3 16.249-12.902 23.553-8.732 7.302-18.06 10.953-28.002 10.953-5.809 0-10.725-1.521-14.728-4.563-3.76-3.287-5.641-7.426-5.641-12.416 0-8.398 4.375-16.248 13.089-23.552 8.49-7.302 17.762-10.954 27.834-10.954m216.347 60.25c0-2.07-.801-3.835-2.365-5.295-1.582-1.583-3.407-2.374-5.455-2.374-3.649 0-10.966 3.651-22.007 10.954-11.394 7.425-18.358 12.72-20.909 15.885-1.321 1.703-1.992 3.468-1.992 5.295 0 2.067.782 3.832 2.365 5.294 1.452 1.582 3.258 2.373 5.455 2.373 3.5 0 10.91-3.652 22.175-10.954 11.152-7.304 18.06-12.599 20.722-15.884 1.341-1.583 2.011-3.348 2.011-5.294m-9.645-13.511c10.427 0 15.64 4.503 15.64 13.511 0 4.38-1.266 9.493-3.817 15.336-2.551 5.72-5.939 10.101-10.184 13.144-9.328 6.329-21.039 9.494-35.096 9.494-10.426 0-15.639-4.504-15.639-13.509 0-4.018 1.284-9.07 3.835-15.155 2.42-5.842 5.809-10.284 10.166-13.328 9.346-6.328 21.038-9.493 35.095-9.493m450.753 23.369c5.809 0 10.724 1.522 14.727 4.563 3.761 3.287 5.642 7.426 5.642 12.416 0 8.398-4.301 16.25-12.922 23.552-8.713 7.303-18.059 10.954-28.002 10.954-5.809 0-10.724-1.522-14.727-4.564-3.742-3.286-5.623-7.425-5.623-12.415 0-8.398 4.357-16.248 13.089-23.552 8.49-7.303 17.762-10.954 27.816-10.954M172.801 208.713h1.091c.484-.121.908-.183 1.273-.183 13.575 0 24.727 4.809 33.454 14.424 8.728 9.493 13.092 20.568 13.092 33.227 0 15.702-6.485 28.482-19.456 38.34-3.394 2.678-7.818 4.869-13.273 6.574.607 7.91.91 14.3.91 19.17 0 .972-.121 4.502-.365 10.589-.484 11.318-4.362 21.116-11.636 29.393-7.03 8.155-15.757 12.232-26.181 12.232-9.82 0-18.183-3.468-25.092-10.406-6.91-7.059-10.364-15.579-10.364-25.56 0-5.233 2-9.677 6.001-13.328 4.12-3.651 8.909-5.478 14.362-5.478 4.851 0 8.911 1.889 12.183 5.661 3.394 3.53 5.092 7.912 5.092 13.145 0 4.747-1.698 8.824-5.092 12.232-3.393 3.409-7.453 5.112-12.183 5.112a14.996 14.996 0 0 1-5.635-1.096c5.334 7.912 12.424 11.868 21.273 11.868 8.364 0 15.211-3.408 20.546-10.225 5.576-7.059 8.605-15.274 9.091-24.646.242-5.842.363-9.19.363-10.041 0-6.816-.242-12.415-.726-16.798-6.062.974-11.456 1.462-16.183 1.462-16.848 0-31.212-6.694-43.091-20.084-11.636-13.509-17.455-29.576-17.455-48.199 0-3.894.363-7.85 1.091-11.867.727-3.285 1.635-6.877 2.726-10.771.607-2.191 2.244-5.721 4.91-10.589a81.126 81.126 0 0 0 3.273-5.478c1.212-2.191 2.061-3.651 2.545-4.382 1.212-2.434 3.577-5.721 7.092-9.858a68.474 68.474 0 0 0 2.999-3.651 85.766 85.766 0 0 1 2.637-3.287 41.724 41.724 0 0 0 1.636-2.008c.363-.487 3.091-3.712 8.181-9.676a55.41 55.41 0 0 0 3.547-3.926 85.587 85.587 0 0 1 2.817-3.287 67.513 67.513 0 0 1 1.637-1.733c-4.363-14.485-7.09-26.048-8.181-34.689-.849-6.938-1.274-16.432-1.274-28.481 0-10.589 2.424-20.508 7.272-29.759 4.73-9.617 11.335-17.467 19.82-23.552.484-.365 1.091-.548 1.819-.548.847 0 1.454.183 1.817.548 6.546 7.912 12.182 18.196 16.909 30.854 4.849 12.659 7.273 24.16 7.273 34.506 0 11.685-2.788 22.639-8.364 32.863-6.302 10.832-14.423 22.031-24.364 33.594 2.545 8.033 5.939 20.63 10.183 37.792m15.455 84.896c6.302-2.313 11.212-6.268 14.727-11.868 3.878-5.354 5.818-11.38 5.818-18.074 0-8.641-2.91-16.31-8.728-23.003-5.939-6.938-13.515-10.834-22.728-11.685 5.214 25.68 8.85 47.225 10.911 64.63m-70.365-42.175c0 12.051 4.848 22.64 14.545 31.767 9.94 8.886 21.091 13.328 33.455 13.328 5.091 0 10.062-.364 14.91-1.095-1.94-18.499-5.759-40.651-11.454-66.455-6.909.729-12.426 3.163-16.546 7.303-4.001 4.258-6.001 9.067-6.001 14.423 0 9.251 4.91 16.734 14.727 22.455.849.853 1.274 1.765 1.274 2.739s-.425 1.886-1.274 2.739c-.726.852-1.636 1.279-2.726 1.279-.123 0-.668-.124-1.636-.367-6.91-3.773-12.244-8.641-16.001-14.605-3.515-6.33-5.273-12.72-5.273-19.17 0-8.398 2.607-16.005 7.818-22.821 5.455-6.817 12.545-11.199 21.274-13.145-3.394-13.633-6.182-24.283-8.364-31.95a3102.04 3102.04 0 0 0-7 7.941c-2.728 3.104-4.335 4.96-4.819 5.568-4.364 5.721-7.697 10.165-10 13.328-4.122 5.721-7.151 10.651-9.091 14.788-2.061 4.625-3.878 9.677-5.455 15.154-1.575 5.233-2.363 10.832-2.363 16.796M178.619 65.76c-9.092 4.503-16.243 10.953-21.454 19.351-5.334 8.643-8.001 17.953-8.001 27.935 0 8.762 2.183 20.568 6.545 35.418 8.728-10.589 15.273-20.387 19.637-29.395 4.606-9.493 6.909-19.413 6.909-29.759 0-7.788-1.212-15.639-3.636-23.55M335.072 204.696c-3.151 0-6.303-1.217-9.455-3.651-3.029-2.313-4.545-5.721-4.545-10.225 0-3.773 1.272-7.119 3.819-10.041 2.424-2.92 5.636-4.382 9.635-4.382 1.335 0 2.182.061 2.547.183-5.576-7.181-13.031-10.894-22.364-11.137-7.031 0-12.365 2.008-16.001 6.026-1.212 1.581-2.303 4.137-3.273 7.667-.97 3.529-1.454 6.694-1.454 9.493-.242 1.948-.363 5.842-.363 11.685v18.989c0 5.842.121 9.798.363 11.865.484 7.912 2.061 13.571 4.727 16.98 3.757 4.139 9.091 6.208 16.001 6.208 7.272 0 13.453-2.679 18.545-8.033 5.212-5.235 8.848-11.989 10.909-20.266.363-1.217 1.091-1.826 2.182-1.826 1.575 0 2.365.731 2.365 2.191 0 .852-.365 2.496-1.092 4.93-1.698 5.477-5.03 11.258-9.999 17.343-5.942 6.817-13.577 10.225-22.91 10.225-5.456 0-11.032-.791-16.729-2.373-5.575-1.948-10.484-4.625-14.727-8.033-4.728-3.775-8.423-8.886-11.091-15.336-2.667-7.059-4-14.849-4-23.369 0-14.85 4-26.656 12-35.42 7.758-9.006 19.274-13.509 34.547-13.509 9.938 0 17.817 3.408 23.636 10.222 6.06 6.817 9.091 13.573 9.091 20.266 0 3.896-1.212 7.059-3.636 9.493-2.182 2.558-5.092 3.835-8.728 3.835M484.172 167.999c2.789 0 5.758 4.565 8.911 13.694 3.029 9.006 4.544 17.587 4.544 25.742 0 6.938-1.696 13.814-5.09 20.63-3.515 7.302-7.697 13.633-12.547 18.987l-14.908 16.798c-4.606 5.354-8.728 11.563-12.364 18.622-3.394 6.817-5.091 13.754-5.091 20.814h-5.818v-46.739h5.818c3.272-2.069 8.122-5.356 14.545-9.86 2.91-2.191 7.273-5.842 13.091-10.953 4.727-4.382 8.304-8.886 10.728-13.511 2.545-4.869 3.818-9.798 3.818-14.788 0-11.563-3.334-23.065-10-34.506v-.731c0-1.096.364-2.008 1.092-2.737.968-.974 2.059-1.462 3.271-1.462m231.963 144.597c4.7-2.705 9.309-5.567 13.819-8.581 4.606-3.287 8.728-6.572 12.364-9.858 4.365-4.018 7.697-8.155 10-12.416 2.424-4.625 3.637-9.189 3.637-13.692 0-4.261-.849-8.581-2.546-12.964-1.333 1.705-5.272 5.6-11.819 11.685-4.969 4.625-9.212 8.824-12.727 12.599-3.15 3.408-6.06 7.667-8.727 12.78-2.666 5.233-4.001 10.527-4.001 15.884v4.563m50.002-86.539c0 7.303-2.303 14.545-6.909 21.726 3.031 6.452 4.544 13.206 4.544 20.266 0 5.964-1.636 11.989-4.907 18.074-3.516 6.574-7.455 11.928-11.819 16.067l-14.182 13.876c-4.727 4.868-8.667 10.163-11.819 15.883-3.273 5.843-4.91 11.866-4.91 18.075h-5.818v-93.477h5.818v14.057c28.123-14.726 42.184-29.576 42.184-44.547 0-3.286-.849-7.121-2.547-11.501v-.731c0-.974.365-1.948 1.091-2.92.97-.974 2.061-1.462 3.273-1.462 1.212 0 2.303.731 3.273 2.191 1.091 1.948 1.697 3.834 1.819 5.661.121.85.242 1.946.363 3.284l.364 2.01c.121.851.182 2.008.182 3.468m902.524-58.058c2.792 0 5.753 4.565 8.918 13.694 3.016 9.006 4.543 17.587 4.543 25.742 0 6.938-1.695 13.814-5.102 20.63-3.5 7.302-7.689 13.633-12.537 18.987l-14.91 16.798c-4.606 5.354-8.726 11.563-12.363 18.622-3.394 6.817-5.092 13.754-5.092 20.814h-5.818v-46.739h5.818c3.273-2.069 8.122-5.356 14.547-9.86 2.908-2.191 7.272-5.842 13.09-10.953 4.728-4.382 8.31-8.886 10.73-13.511 2.551-4.869 3.817-9.798 3.817-14.788 0-11.563-3.333-23.065-10.002-34.506v-.731c0-1.096.365-2.008 1.084-2.737.987-.974 2.066-1.462 3.277-1.462m245.447 144.597a244.975 244.975 0 0 0 13.815-8.581c4.598-3.287 8.732-6.572 12.362-9.858 4.357-4.018 7.708-8.155 9.998-12.416 2.421-4.625 3.649-9.189 3.649-13.692 0-4.261-.856-8.581-2.55-12.964-1.341 1.705-5.269 5.6-11.823 11.685-4.971 4.625-9.216 8.824-12.735 12.599-3.146 3.408-6.051 7.667-8.713 12.78-2.681 5.233-4.003 10.527-4.003 15.884v4.563m49.99-86.539c0 7.303-2.29 14.545-6.907 21.726a47.065 47.065 0 0 1 4.543 20.266c0 5.964-1.62 11.989-4.897 18.074-3.519 6.574-7.466 11.928-11.823 16.067l-14.187 13.876c-4.729 4.868-8.658 10.163-11.804 15.883-3.277 5.843-4.915 11.866-4.915 18.075h-5.828v-93.477h5.828v14.057c28.113-14.726 42.17-29.576 42.17-44.547 0-3.286-.837-7.121-2.532-11.501v-.731c0-.974.354-1.948 1.08-2.92.968-.974 2.067-1.462 3.277-1.462s2.309.731 3.277 2.191c1.098 1.948 1.694 3.834 1.824 5.661.112.85.243 1.946.354 3.284l.373 2.01c.111.851.167 2.008.167 3.468M522.472 147.185c-2.061-2.067-3.091-4.563-3.091-7.484 0-2.922 1.03-5.417 3.091-7.485 2.061-2.07 4.545-3.105 7.455-3.105 2.908 0 5.393 1.035 7.454 3.105 2.06 2.068 3.091 4.563 3.091 7.485 0 2.921-1.031 5.417-3.091 7.484-2.061 2.07-4.546 3.106-7.454 3.106-2.91 0-5.394-1.036-7.455-3.106m1184.49 0c-2.048-2.067-3.091-4.563-3.091-7.484 0-2.922 1.043-5.417 3.091-7.485 2.066-2.07 4.543-3.105 7.466-3.105 2.904 0 5.381 1.035 7.447 3.105 2.067 2.068 3.091 4.563 3.091 7.485 0 2.921-1.024 5.417-3.091 7.484-2.066 2.07-4.543 3.106-7.447 3.106-2.923 0-5.4-1.036-7.466-3.106" fill-rule="nonzero"/>
</svg>
