<?xml version="1.0" encoding="utf-8"?>
<svg xmlns="http://www.w3.org/2000/svg" version="1.0" viewBox="0 0 1000 150">
	<path d="m 46.06766,1.1112921 c -2.338736,1.145297 -4.949419,3.817658 -4.949419,5.017494 0,0.381766 -0.271945,0.708994 -0.543891,0.708994 -0.326336,0 -0.598281,0.490842 -0.598281,1.145298 0,0.654455 -0.271946,1.145297 -0.543893,1.145297 -0.326335,0 -0.598281,0.490842 -0.598281,1.0907599 0,0.654456 -0.271946,1.308911 -0.543892,1.472525 -0.326335,0.218152 -0.598282,0.927147 -0.598282,1.63614 0,0.708994 -0.217556,1.527064 -0.489502,1.854291 -0.543892,0.490842 -0.870227,2.672362 -1.577287,9.271458 l -0.326335,2.999589 -17.622104,0 -17.67649318000003,0 0,44.066691 0,44.121231 26.86826818000003,0 26.813881,0 0,1.69068 c 0,0.92714 0.217556,1.79975 0.489503,2.0179 0.326335,0.16362 0.652671,1.25438 0.815838,2.45421 0.163168,1.19984 0.598282,3.32682 0.979005,4.69027 0.979007,3.65405 1.41412,10.9076 0.598282,10.9076 -0.326335,0 -0.598282,0.49084 -0.598282,1.1453 0,0.65445 -0.217556,1.14529 -0.435113,1.14529 -0.217557,0 -0.707059,0.54538 -0.979005,1.25437 -0.326335,0.65446 -1.087785,1.52706 -1.686066,1.8543 -0.65267,0.32723 -1.522898,0.92714 -1.958012,1.36345 -0.435113,0.38176 -1.522897,0.8726 -2.447514,1.09075 -0.870228,0.16363 -1.631677,0.54539 -1.631677,0.81808 0,0.709 -6.14598,0.59991 -6.581094,-0.0545 -0.163168,-0.32723 -0.707059,-0.59992 -1.196563,-0.59992 -0.870227,0 -2.501903,-1.30891 -2.501903,-1.96337 0,-0.16361 0.652671,-0.32723 1.41412,-0.32723 0.761448,0 1.522897,-0.27268 1.740455,-0.54538 0.163167,-0.32723 0.70706,-0.59992 1.196562,-0.59992 1.305341,0 3.317741,-2.34513 4.13358,-4.90841 0.65267,-2.01791 0.65267,-2.7269 0,-4.5812 -0.924616,-2.56329 -3.589688,-5.39926 -5.058196,-5.39926 -0.598281,0 -1.250953,-0.27269 -1.41412,-0.59992 -0.489503,-0.76353 -2.937017,-0.70899 -5.384532,0.16362 -2.556293,0.87261 -5.765256,4.19942 -5.765256,5.94464 0,0.709 -0.271946,1.47252 -0.543893,1.63615 -0.326335,0.21815 -0.598281,1.52706 -0.598281,2.89051 0,1.41799 0.271946,2.56327 0.598281,2.56327 0.271947,0 0.543893,0.49085 0.543893,1.1453 0,0.65447 0.271946,1.1453 0.598281,1.1453 0.271946,0 0.543893,0.38177 0.543893,0.81808 0,0.49084 0.979006,1.5816 2.121178,2.4542 1.196563,0.87261 2.229958,1.79976 2.338736,2.01791 0.108775,0.21815 0.70706,0.4363 1.250953,0.4363 0.598281,0 1.196562,0.21815 1.414118,0.49085 1.033395,1.69068 15.718482,1.69068 15.718482,0 0,-0.2727 0.435114,-0.49085 0.924617,-0.49085 0.543892,0 1.35973,-0.4363 1.849233,-0.98169 0.543892,-0.54537 1.468508,-1.3089 2.06679,-1.63613 0.652671,-0.32723 1.414119,-1.19984 1.740454,-1.85429 0.271947,-0.709 0.761449,-1.25438 0.979007,-1.25438 0.217556,0 0.435113,-0.49083 0.435113,-1.03622 0,-0.54538 0.271947,-1.30891 0.598282,-1.63614 1.033394,-0.98169 0.108775,-14.12534 -1.142174,-17.07039 -0.271946,-0.65445 -0.65267,-1.90883 -0.761449,-2.89051 -0.108775,-0.92715 -0.326335,-2.07244 -0.489504,-2.56329 -0.163167,-0.76353 9.953226,-0.8726 88.164909,-0.98168 l 88.38247,-0.16361 0,17.23401 c 0,16.0887 0.0544,17.17946 0.979,17.01585 0.76145,-0.16362 1.08779,-0.87262 1.19656,-2.89052 0.10875,-1.52706 0.43511,-2.7269 0.70706,-2.7269 0.32634,0 0.54389,-0.76353 0.54389,-1.74522 0,-0.92714 0.27195,-1.69068 0.59829,-1.69068 0.27195,0 0.54389,-0.49083 0.54389,-1.1453 0,-0.65445 0.27195,-1.14528 0.59828,-1.14528 0.27194,0 0.54389,-0.38178 0.54389,-0.87262 0,-0.49083 2.22996,-3.10866 5.00381,-5.8901 2.77385,-2.7269 5.65648,-5.8901 6.41793,-6.98086 0.76145,-1.09076 1.5229,-2.12698 1.68606,-2.2906 0.65267,-0.59992 2.88262,-5.29018 2.88262,-6.05371 0,-0.709 27.249,-0.81807 190.74297,-0.81807 l 190.74295,0 0,17.17947 c 0,16.7977 0,17.17946 1.14217,17.17946 0.97901,0 1.14218,-0.38176 1.14218,-2.89051 0,-1.52706 0.27195,-2.83598 0.59828,-2.83598 0.27194,0 0.54389,-0.76353 0.54389,-1.74522 0,-0.92714 0.27195,-1.69068 0.59828,-1.69068 0.27195,0 0.5439,-0.49083 0.5439,-1.1453 0,-0.65445 0.27195,-1.14528 0.59827,-1.14528 0.27195,0 0.5439,-0.38178 0.5439,-0.87262 0,-0.49083 2.22995,-3.10866 5.0038,-5.8901 2.77385,-2.7269 5.65649,-5.8901 6.41793,-6.98086 0.76145,-1.09076 1.5229,-2.12698 1.68607,-2.2906 0.65266,-0.59992 2.88263,-5.29018 2.88263,-6.05371 0,-0.709 24.31197,-0.81807 169.63994,-0.81807 112.69444,0 169.58555,-0.21816 169.58555,-0.59992 0,-0.27269 0.38072,-0.54538 0.87023,-0.54538 0.76145,0 0.87023,-5.12657 0.87023,-42.866857 l 0,-42.812318 -1.30534,-0.708994 c -0.92462,-0.490841 -11.42173,-0.708994 -39.26901,-0.818069 l -37.96367,-0.109075 -0.16316,-4.035811 c -0.16318,-4.744805 -0.5439,-6.599096 -1.30535,-6.599096 -0.32634,0 -0.54389,1.908829 -0.54389,4.363039 0,2.399671 -0.27195,4.853881 -0.59829,5.453798 -0.59827,1.09076 -2.06679,1.09076 -78.80996,1.09076 l -78.21168,0 0,-10.198603 c 0,-9.8168379 -0.27195,-11.5620529 -1.84924,-11.5620529 -0.21755,0 -0.43511,4.9084189 -0.43511,10.8530589 l 0,10.907597 -121.07038,0 -121.07038,0 0,-5.181108 c 0,-4.744805 -0.10875,-5.126571 -1.14217,-5.126571 -1.03339,0 -1.14218,0.381766 -1.14218,5.126571 l 0,5.181108 -78.80995,0 -78.80997,0 0,-10.907597 c 0,-5.94464 -0.21755,-10.8530589 -0.43512,-10.8530589 -1.57728,0 -1.84922,1.745215 -1.84922,11.5620529 l 0,10.198603 L 207.44044,27.289563 59.664963,27.180488 59.501794,22.599297 c -0.108775,-2.508747 -0.380724,-4.853881 -0.707059,-5.126571 -0.271946,-0.327227 -0.543892,-1.417987 -0.543892,-2.399671 0,-1.036221 -0.217558,-2.017905 -0.435114,-2.126981 -0.271946,-0.163654 -0.815839,-1.63618 -1.250952,-3.2177809 -0.435114,-1.581602 -1.033395,-2.890513 -1.250952,-2.890513 -0.271946,0 -0.489502,-0.490842 -0.489502,-1.145298 0,-0.654456 -0.217558,-1.145297 -0.435114,-1.145297 -0.217557,0 -0.76145,-0.763532 -1.196562,-1.745216 -0.435114,-1.036222 -1.196564,-1.690677 -1.849234,-1.690677 -0.598281,0 -1.087784,-0.27268998 -1.087784,-0.59991798 0,-0.872608 -1.794844,-0.599918 -4.187969,0.59991798 z m 5.656478,12.2710459 c 1.196563,1.145297 1.958011,2.508747 1.958011,3.381355 0,0.763532 0.217556,1.527063 0.489503,1.63614 0.652671,0.218152 -0.326335,7.253552 -1.142174,8.289773 -0.435114,0.54538 -2.229957,0.763532 -6.254758,0.763532 l -5.656479,0 0,-1.745216 c 0,-0.927145 0.217558,-2.126981 0.543893,-2.726898 0.271946,-0.54538 0.870227,-1.799754 1.250952,-2.835976 0.435114,-1.036222 0.979005,-1.854292 1.196563,-1.854292 0.217556,0 0.435113,-0.327227 0.435113,-0.708993 0,-0.708994 4.405526,-6.162793 4.949417,-6.162793 0.163168,0 1.196563,0.872608 2.229959,1.963368 z M 35.407375,30.180037 c 0.05439,0.218152 0.435113,2.7269 0.924617,5.562875 0.489502,2.835974 1.033394,6.435482 1.142173,8.017083 0.271945,2.781437 0.217556,2.945051 -1.740455,4.144887 -1.958012,1.254374 -2.447515,1.308911 -17.18699,1.308911 l -15.1201999,0 0,-9.762299 0,-9.707761 15.9904279,0 c 8.811052,0 15.990427,0.218153 15.990427,0.436304 z m 15.990427,-0.163614 c 0,0.54538 -1.35973,2.781438 -2.447514,3.981272 -0.543892,0.599919 -0.979006,1.308913 -0.979006,1.581603 0,0.490841 -6.037202,6.762709 -6.472316,6.762709 -0.380725,0 -1.033395,-3.981272 -1.305341,-8.453387 l -0.326335,-4.144887 5.765256,0 c 3.154575,0 5.765256,0.109075 5.765256,0.27269 z m 123.082778,0.27269 c -0.21755,0.327228 -0.76144,0.599918 -1.19657,0.599918 -0.43511,0 -0.81583,0.27269 -0.81583,0.54538 0,0.327227 -0.38073,0.599917 -0.81584,0.599917 -1.03339,0 -4.89503,3.872197 -4.89503,4.90842 0,0.436303 -0.27195,0.818068 -0.54388,0.818068 -0.38073,0 -0.59829,2.290596 -0.59829,5.726489 l 0,5.726488 -56.51039,0 c -40.628737,0 -56.564774,-0.163614 -56.564774,-0.654455 0,-0.327229 0.435113,-1.308912 1.033394,-2.126982 0.543893,-0.818069 1.305342,-2.181519 1.631677,-2.945051 1.577287,-3.763121 1.849233,-4.472115 2.501903,-6.599096 0.380725,-1.254374 0.924616,-2.726899 1.196563,-3.272279 0.271946,-0.545379 0.489503,-1.636139 0.489503,-2.454209 l 0,-1.417988 57.706954,0 c 38.3444,0 57.59817,0.218153 57.38061,0.54538 z m 112.20494,9.162381 0,9.762299 -51.3978,0 c -28.2824,0 -51.39781,-0.218151 -51.39781,-0.490841 0,-0.27269 0.70707,-0.81807 1.57729,-1.254374 1.90363,-1.036222 5.27575,-4.526653 5.27575,-5.508337 0,-0.436304 0.27195,-0.763531 0.59829,-0.763531 0.81584,0 0.70706,-6.926325 -0.16316,-8.780616 -0.38073,-0.81807 -0.92463,-1.527063 -1.14218,-1.527063 -0.21756,0 -0.43511,-0.27269 -0.43511,-0.599918 0,-0.327227 16.5887,-0.54538 48.56956,-0.54538 l 48.51517,0 0,9.707761 z m 68.53041,0 0,9.762299 -31.87209,0 c -24.04002,0 -32.03523,-0.163614 -32.52473,-0.708994 -0.76145,-0.708993 -1.0334,-17.670306 -0.32634,-18.3793 0.21755,-0.218152 14.84825,-0.381766 32.57913,-0.381766 l 32.14403,0 0,9.707761 z m 159.90426,0.05454 0,9.707761 -78.64679,-0.163614 -78.70118,-0.109075 -0.16317,-9.598685 -0.16317,-9.598685 78.86436,0 78.80995,0 0,9.762299 z m 62.5476,-9.21692 c -0.21756,0.327228 -0.76145,0.599918 -1.19656,0.599918 -0.43512,0 -0.81584,0.27269 -0.81584,0.54538 0,0.327227 -0.38073,0.599917 -0.81584,0.599917 -1.0334,0 -4.89502,3.872198 -4.89502,4.90842 0,0.436304 -0.27195,0.818069 -0.5439,0.818069 -0.38073,0 -0.59828,2.290596 -0.59828,5.726488 l 0,5.726489 -25.67171,0 -25.7261,0 0,-9.7623 0,-9.707761 30.2948,0 c 20.06961,0 30.18601,0.218153 29.96845,0.54538 z m 113.23833,9.053306 -0.16316,9.598684 -51.83293,0.109075 c -28.49993,0.109076 -51.8329,-0.05454 -51.8329,-0.327228 0,-0.218152 0.70706,-0.81807 1.57728,-1.254373 1.90363,-1.036223 5.27575,-4.526654 5.27575,-5.508337 0,-0.436304 0.27195,-0.763532 0.59829,-0.763532 0.81584,0 0.70705,-6.926324 -0.16317,-8.780615 -0.38073,-0.81807 -0.92462,-1.527063 -1.14218,-1.527063 -0.21755,0 -0.43511,-0.27269 -0.43511,-0.599918 0,-0.327227 16.75187,-0.54538 49.11346,-0.54538 l 49.16784,0 -0.16317,9.598686 z m 68.53041,0 -0.16318,9.598684 -32.41596,0.109075 -32.41597,0.163614 0,-9.70776 0,-9.7623 32.57913,0 32.57914,0 -0.16316,9.598686 z M 919.3408,38.306195 c 0.10875,5.671951 -0.0544,8.726078 -0.5439,9.598686 l -0.70705,1.308911 -78.1029,0 -78.1573,0 0,-9.762299 0,-9.707761 78.6468,0.163614 78.70118,0.109075 0.16317,8.289773 z m 53.68215,1.036223 -0.16317,9.598684 -25.39975,0.109075 c -19.90646,0.163614 -25.45416,0 -25.83489,-0.54538 -0.21755,-0.381766 -0.43511,-4.799342 -0.43511,-9.762299 l 0,-8.998767 25.99805,0 25.99803,0 -0.16316,9.598685 z m 9.13739,0 -0.16318,9.598684 -2.71945,0.163615 -2.71946,0.163614 0,-9.7623 0,-9.762299 2.88263,0 2.88262,0 -0.16316,9.598686 z M 30.566736,51.286237 c 0.815837,0.327227 0.543891,0.81807 -1.522899,2.7269 -1.414119,1.308911 -3.154574,3.272278 -3.916022,4.363038 -0.76145,1.09076 -2.012401,2.672361 -2.82824,3.435892 -0.815838,0.763533 -1.794844,2.126983 -2.284346,2.99959 -0.435114,0.872608 -0.979006,1.581601 -1.250953,1.581601 -0.271946,0 -0.489502,0.436304 -0.489502,0.927146 0,0.54538 -0.543893,1.417988 -1.250952,2.017905 -1.033395,0.872608 -2.175568,1.036223 -7.3969322,1.036223 l -6.2003697,0 0,-9.325996 c 0,-5.126571 0.1631676,-9.544147 0.3807243,-9.762299 0.489503,-0.490842 25.5085386,-0.490842 26.7594916,0 z m 66.953115,0 c 1.250953,0.327227 1.794844,1.36345 0.70706,1.36345 -0.70706,0 -5.710867,4.908418 -5.710867,5.562874 0,0.27269 -0.543892,1.090759 -1.142173,1.854291 -0.598282,0.81807 -1.142174,2.017905 -1.142174,2.726899 0,0.708994 -0.271945,1.308912 -0.543891,1.308912 -0.326335,0 -0.598282,1.254374 -0.598282,2.781438 0,2.072442 -0.271946,2.945051 -0.924617,3.163202 -1.142172,0.436304 -39.269009,0.436304 -40.411182,0 -0.65267,-0.218151 -0.924617,-1.09076 -0.924617,-2.563285 0,-1.254373 -0.271946,-2.236057 -0.543891,-2.236057 -0.326336,0 -0.598282,-0.81807 -0.598282,-1.799754 0,-1.036221 -0.326335,-2.672361 -0.65267,-3.708582 -0.65267,-1.745216 -0.598281,-1.963367 1.033395,-3.490431 0.924616,-0.872609 2.175568,-2.290596 2.719461,-3.108666 0.543891,-0.872608 1.522897,-1.690678 2.229957,-1.799753 1.958011,-0.381766 45.088654,-0.436305 46.502773,-0.05454 z m 66.789949,0 c 1.30534,0.327227 1.30534,0.490842 1.30534,9.707762 l 0,9.380533 -23.49614,0 -23.44175,0 1.68607,-1.527064 c 2.33873,-2.236057 2.99141,-3.708583 2.99141,-6.926324 0,-3.490431 -1.19657,-6.49002 -3.48091,-8.67154 -1.74046,-1.63614 -1.74046,-1.63614 -0.43512,-1.908829 2.06679,-0.381766 43.45698,-0.436305 44.8711,-0.05454 z m 77.55901,0.163613 c 1.63167,0.490843 1.63167,0.54538 0.43511,0.927147 -0.70705,0.218151 -1.30534,0.654456 -1.30534,0.927146 0,0.272689 -0.38072,0.490841 -0.81583,0.490841 -1.0334,0 -4.89503,3.872197 -4.89503,4.908418 0,0.436304 -0.27195,0.81807 -0.5439,0.81807 -0.32633,0 -0.65266,2.399672 -0.70706,5.290185 l -0.16316,5.290185 -23.06103,0.163614 c -21.48373,0.163613 -23.11541,0.05454 -23.82247,-0.872608 -0.43511,-0.54538 -0.76145,-1.472526 -0.81584,-2.017906 0,-0.54538 -0.27195,-0.981684 -0.54388,-0.981684 -0.32634,0 -0.59829,-0.327227 -0.59829,-0.763531 0,-0.381766 -0.4895,-1.308912 -1.14218,-1.963367 -0.65266,-0.654457 -1.14217,-1.63614 -1.14217,-2.126983 0,-0.490841 -0.21755,-0.872607 -0.4895,-0.872607 -0.27195,0 -0.81584,-0.708994 -1.25095,-1.581601 -0.4895,-0.872608 -1.14218,-1.90883 -1.5229,-2.290595 -0.87023,-0.927146 -2.44751,-0.927146 -2.44751,0.05454 0,1.036222 1.35972,3.817659 1.84923,3.817659 0.21755,0 0.43512,0.381766 0.43512,0.872607 0,0.490843 0.4895,1.472526 1.14217,2.126983 0.65266,0.654455 1.14216,1.581601 1.14216,1.963367 0,0.436304 0.27195,0.763531 0.59829,0.763531 0.27195,0 0.54389,0.927146 0.54389,2.017906 l 0,1.963368 -7.39693,0 -7.45132,0 0,-9.325996 c 0,-5.126571 0.10875,-9.435072 0.21755,-9.598686 0.5439,-0.54538 72.06571,-0.54538 73.75177,0 z m 44.70793,9.380534 0.16317,9.544148 -16.58871,0 c -14.46753,0 -16.53432,-0.05454 -16.20798,-0.81807 0.16316,-0.490843 0.59828,-0.872608 0.87023,-0.872608 0.81583,0 4.45991,-4.090349 4.45991,-4.962957 0,-0.436304 0.27195,-0.763531 0.59829,-0.763531 0.81583,0 0.70705,-6.926325 -0.16318,-8.780616 -0.38072,-0.81807 -0.92461,-1.527063 -1.14217,-1.527063 -0.87023,0 -0.43512,-1.09076 0.5439,-1.308912 0.54388,-0.163615 6.90742,-0.27269 14.14118,-0.218152 l 13.16219,0.109075 0.16317,9.598684 z m 68.5304,-0.163614 0.10875,9.489609 -31.38257,0.163614 c -17.24139,0.109075 -31.92648,0 -32.57914,-0.218151 -1.08779,-0.327229 -1.14217,-0.81807 -1.14217,-9.162382 0,-7.798932 0.10875,-8.889691 0.979,-9.380533 0.65267,-0.381767 11.80246,-0.54538 32.41597,-0.490842 l 31.43696,0.163614 0.16316,9.435071 z m 159.90428,0.163614 0.16317,9.598685 -78.70119,-0.163613 -78.70118,-0.163614 -0.16317,-9.271458 c -0.10875,-8.453387 -0.0544,-9.271457 0.87023,-9.489609 0.54388,-0.163615 35.95126,-0.218152 78.70118,-0.218152 l 77.6678,0.109075 0.16316,9.598684 z m 53.68214,0 0.16318,9.544148 -25.7261,0 -25.7261,0 0,-9.325996 c 0,-5.126571 0.16318,-9.544147 0.38073,-9.762299 0.21756,-0.218152 11.69368,-0.27269 25.56293,-0.218152 l 25.1822,0.163614 0.16316,9.598685 z m 76.6344,-9.325995 1.41412,0.490841 -1.25095,0.381767 c -0.70706,0.218151 -1.30533,0.654456 -1.30533,0.927146 0,0.272689 -0.38073,0.490841 -0.81584,0.490841 -1.0334,0 -4.89504,3.872197 -4.89504,4.908418 0,0.436304 -0.27194,0.81807 -0.54389,0.81807 -0.38072,0 -0.59828,2.18152 -0.59828,5.453799 l 0,5.399261 -23.22419,0 c -21.42935,0 -23.27858,-0.05454 -23.93125,-0.981684 -0.43512,-0.54538 -0.76145,-1.472526 -0.81585,-2.017906 0,-0.54538 -0.27193,-0.981684 -0.54388,-0.981684 -0.32634,0 -0.59828,-0.327227 -0.59828,-0.763531 0,-0.381766 -0.48951,-1.308912 -1.14217,-1.963367 -0.65268,-0.654457 -1.14218,-1.63614 -1.14218,-2.126983 0,-0.490841 -0.21756,-0.872607 -0.4895,-0.872607 -0.27195,0 -0.81584,-0.708994 -1.25096,-1.581601 -0.4895,-0.872608 -1.14216,-1.90883 -1.52289,-2.290595 -0.87024,-0.927146 -2.44752,-0.927146 -2.44752,0.05454 0,1.036222 1.35973,3.817659 1.84923,3.817659 0.21757,0 0.43512,0.381766 0.43512,0.872607 0,0.490843 0.4895,1.472526 1.14217,2.126983 0.65268,0.654455 1.14218,1.581601 1.14218,1.963367 0,0.436304 0.27195,0.763531 0.59827,0.763531 0.27195,0 0.5439,0.927146 0.5439,2.017906 l 0,2.017905 -7.28815,-0.163613 -7.28816,-0.163614 -0.16316,-9.271458 -0.16318,-9.271457 6.20038,-0.218152 c 13.43413,-0.381766 66.73555,-0.27269 68.09528,0.163614 z m 44.43598,-0.218152 c 1.25097,0.381766 1.25097,0.436303 1.14218,9.598685 l -0.16316,9.21692 -16.96944,0.163614 c -15.01142,0.109075 -16.96944,0.05454 -16.6431,-0.708994 0.16318,-0.490843 0.59829,-0.872608 0.87023,-0.872608 0.81583,0 4.45992,-4.090349 4.45992,-4.962957 0,-0.436304 0.27194,-0.763531 0.59828,-0.763531 0.81583,0 0.70706,-6.926325 -0.16317,-8.780616 -0.38072,-0.81807 -0.92462,-1.527063 -1.14217,-1.527063 -0.87023,0 -0.38073,-1.09076 0.54389,-1.308912 1.5229,-0.436305 25.94366,-0.436305 27.46654,-0.05454 z m 68.53041,0 c 1.25095,0.381766 1.25095,0.436303 1.14218,9.598685 l -0.16318,9.21692 -32.41596,0.218151 -32.41597,0.163614 0,-9.380533 c 0,-5.181109 0.16317,-9.598685 0.38072,-9.816837 0.4895,-0.436304 61.67736,-0.490842 63.47221,0 z m 160.06744,0.218152 c 0.97901,0.54538 1.08779,1.308911 1.08779,9.053305 0,5.835564 -0.21756,8.671539 -0.70706,9.162382 -0.4895,0.54538 -18.76428,0.654456 -78.80996,0.654456 l -78.10291,0 0,-9.325996 c 0,-5.126571 0.16316,-9.544147 0.38073,-9.762299 0.65267,-0.654456 154.90046,-0.436304 156.15141,0.218152 z m 53.4646,-0.218152 c 1.30534,0.327227 1.30534,0.490842 1.30534,9.435072 0,8.944229 0,9.107843 -1.30534,9.380533 -0.70706,0.163614 -12.29196,0.27269 -25.83487,0.163614 l -24.52954,-0.163614 -0.16316,-9.107843 c -0.10875,-6.926325 0,-9.21692 0.54388,-9.598686 0.87023,-0.490843 48.02568,-0.599918 49.98369,-0.109075 z m 9.19177,0 c 1.25095,0.381766 1.25095,0.436303 1.14218,9.598685 l -0.16318,9.21692 -2.71945,0.163614 -2.71946,0.218151 0,-9.380533 c 0,-5.181109 0.16316,-9.598685 0.38073,-9.816837 0.4895,-0.436304 2.33873,-0.436304 4.07918,0 z m -866.20254,2.508747 c 0.76145,0.599918 1.74046,1.145297 2.17557,1.145297 0.38072,0 0.65267,0.436304 0.54389,0.927147 -0.10877,0.708993 -0.92462,1.036221 -2.71946,1.199835 -3.64408,0.327228 -5.16697,2.290596 -5.16697,6.435482 0.0544,3.054127 0.92461,5.181109 2.12117,5.181109 0.32634,0 0.92462,0.381765 1.30535,0.872608 0.65267,0.763531 -0.16317,0.81807 -6.47232,0.81807 l -7.233765,0 0,-4.253964 c 0,-2.345133 0.271945,-4.417576 0.598281,-4.581191 0.271944,-0.218151 0.543894,-0.818068 0.543894,-1.417987 0,-1.036221 3.97041,-5.508336 5.98281,-6.708172 1.90362,-1.145298 6.63548,-0.927145 8.32155,0.381766 z m -73.262265,7.58078 c 0.380725,0.381766 0.70706,1.636139 0.70706,2.781437 0,1.199836 0.271946,2.345134 0.598281,2.508747 0.271946,0.218153 0.543893,1.145298 0.543893,2.072444 l 0,1.63614 -6.25476,0 c -3.589687,0 -6.309148,-0.218153 -6.309148,-0.490843 0,-0.327227 1.033395,-1.417987 2.338736,-2.454208 1.305341,-1.036223 3.426521,-2.945053 4.731862,-4.308501 2.665071,-2.672361 2.71946,-2.7269 3.644076,-1.745216 z m -26.81388,13.198192 c 0.108775,1.199835 -0.05439,2.126982 -0.435113,2.126982 -0.380725,0 -0.598282,2.563284 -0.598282,7.417165 l 0,7.471704 -5.1125851,0 -5.1669748,0 0,-9.325995 c 0,-5.181108 0.1631676,-9.544148 0.3807243,-9.762299 0.2175569,-0.218153 2.7194605,-0.327229 5.6020887,-0.27269 l 5.1669749,0.163614 0.163167,2.181519 z m 26.378766,-2.236057 c 0,0.763531 -0.761448,2.072443 -1.196562,2.072443 -0.870228,0 -5.275754,4.690267 -6.689872,7.0354 -0.652671,1.199835 -1.250953,2.672361 -1.250953,3.272279 0,0.599917 -0.271946,1.254374 -0.543892,1.417987 -0.326335,0.218153 -0.598281,1.527064 -0.598281,2.890514 l 0,2.563285 -5.112585,0 c -4.786251,0 -5.166975,-0.109075 -5.166975,-1.145298 0,-1.472525 1.142173,-6.326406 1.794844,-7.580779 0.271946,-0.54538 0.489502,-1.36345 0.489502,-1.854291 0,-0.490843 0.271947,-0.872609 0.598282,-0.872609 0.271946,0 0.543892,-0.490841 0.543892,-1.145298 0,-0.654454 0.217556,-1.145297 0.543893,-1.145297 0.271945,0 0.707058,-0.54538 0.924616,-1.199836 0.163167,-0.654455 1.142173,-1.908829 2.121178,-2.835975 1.686066,-1.63614 1.903623,-1.690677 7.61449,-1.690677 3.263352,0 5.928423,0.109075 5.928423,0.218152 z m 46.883499,0.381765 c 0.761448,0.381766 1.087784,1.199836 1.087784,2.508747 0,1.09076 0.271947,2.126983 0.598282,2.345134 0.271946,0.163614 0.543891,0.927146 0.543891,1.690677 0,0.763533 0.271946,1.527064 0.598282,1.745217 0.271945,0.163613 0.543892,0.81807 0.543892,1.472525 0,0.599917 0.217557,1.090759 0.435113,1.090759 0.271947,0 0.924617,0.81807 1.522899,1.799754 1.30534,2.236057 4.242357,5.072032 5.275752,5.072032 0.435114,0 0.76145,0.27269 0.76145,0.599918 0,0.381766 -4.731862,0.490842 -13.869249,0.436305 L 71.684977,91.317117 71.086696,88.044838 c -0.326335,-1.799753 -0.761449,-3.435893 -0.979005,-3.654045 -0.217558,-0.218152 -0.435114,-0.81807 -0.435114,-1.36345 0,-0.490841 -0.76145,-1.799753 -1.686066,-2.890513 -0.979006,-1.090759 -1.740455,-2.181519 -1.740455,-2.454209 0,-0.218152 -1.305341,-1.36345 -2.882627,-2.45421 -1.522899,-1.145297 -2.665071,-2.290594 -2.501904,-2.563284 0.435114,-0.763532 25.726096,-0.708994 27.140215,0.05454 z m 76.68879,-0.27269 c 0.81583,0.327229 0.92461,1.745216 0.92461,9.7623 l 0,9.380533 -25.1822,0 c -16.58871,0 -25.01904,-0.218152 -24.80148,-0.599918 0.21756,-0.27269 0.65267,-0.54538 0.979,-0.54538 0.81584,0 4.45992,-4.035811 4.45992,-4.962956 0,-0.436303 0.27194,-0.763532 0.59828,-0.763532 0.27195,0 0.54389,-0.490841 0.54389,-1.09076 0,-0.654455 0.27195,-1.308911 0.59828,-1.472525 0.27195,-0.218152 0.5439,-1.745216 0.5439,-3.490431 0,-2.7269 -0.16317,-3.108665 -1.14218,-3.108665 -0.76145,0 -1.14217,0.381765 -1.14217,1.145298 0,0.654456 -0.27195,1.145297 -0.54389,1.145297 -0.32634,0 -0.59828,0.763532 -0.59828,1.690677 0,0.981684 -0.27195,1.745217 -0.5439,1.745217 -0.32633,0 -0.59828,0.436303 -0.59828,0.981683 0,0.54538 -1.41412,2.345133 -3.20896,3.981273 -2.93702,2.835974 -3.37213,3.054127 -5.98281,3.054127 -4.40553,0 -5.76526,-0.981684 -8.37594,-6.217331 -1.468511,-2.835975 -1.849235,-4.3085 -1.849235,-6.926323 0,-1.799754 0.163168,-3.435894 0.380724,-3.654045 0.489501,-0.490843 63.744151,-0.490843 64.940721,-0.05454 z m 18.1116,0.27269 c 0.76145,0.381766 1.08778,1.199836 1.08778,2.563286 0,2.017905 -2.12117,7.144476 -2.9914,7.144476 -0.21756,0 -0.43511,0.327227 -0.43511,0.763531 0,0.927146 -4.13359,5.344722 -6.63549,7.144476 -1.08778,0.708994 -2.66507,1.254374 -3.86163,1.254374 l -2.06679,0 0,-9.325995 c 0,-5.181108 0.16316,-9.544148 0.38072,-9.762299 0.59828,-0.599918 13.32535,-0.436304 14.52192,0.218151 z m 50.25563,0 c 0.979,0.54538 1.08779,1.254374 1.08779,9.707762 l 0,9.162381 -25.67171,0 c -27.30339,0 -27.08583,0 -24.74709,-2.617823 1.41411,-1.581602 3.58969,-5.890103 3.58969,-7.144475 0,-0.599919 0.27194,-1.199837 0.59827,-1.417989 0.27195,-0.163614 0.5439,-1.963367 0.5439,-3.926735 0,-1.963367 0.16317,-3.763121 0.38073,-3.981272 0.65266,-0.654456 42.96747,-0.436304 44.21842,0.218151 z m 11.36735,0 c 2.06679,-0.109075 12.34635,-0.218151 22.84346,-0.27269 l 19.145,-0.05454 0.16317,9.598685 0.16317,9.598685 -15.44654,0 c -14.30436,0 -15.44654,-0.05454 -15.44654,-0.981684 0,-0.54538 -0.65266,-2.181519 -1.4685,-3.599506 -0.76145,-1.417989 -1.57728,-3.054127 -1.74046,-3.599507 -0.21755,-0.54538 -0.59827,-0.981684 -0.87022,-0.981684 -0.27195,0 -0.4895,-0.327229 -0.4895,-0.763532 0,-0.381765 -0.43512,-1.254374 -0.97902,-1.854292 -0.54388,-0.599917 -1.35972,-1.799753 -1.84922,-2.672361 -0.81584,-1.63614 -2.88263,-2.18152 -2.88263,-0.763531 0,1.199835 1.25095,3.76312 1.79484,3.76312 0.27195,0 0.4895,0.490842 0.4895,1.145299 0,0.654455 0.27195,1.145297 0.59829,1.145297 0.27194,0 0.54389,0.327227 0.54389,0.708994 0,0.381766 0.5439,1.36345 1.14217,2.126981 0.59829,0.81807 1.14218,2.017906 1.14218,2.7269 0,0.654455 0.27195,1.417987 0.59827,1.581601 0.27195,0.218151 0.5439,0.763531 0.5439,1.199835 0,0.654456 -1.41412,0.81807 -7.99521,0.81807 l -7.99521,0 0,-9.325995 c 0,-5.181108 0.16316,-9.544148 0.38071,-9.762299 0.21756,-0.218153 1.19656,-0.218153 2.17558,0.05454 0.92461,0.218153 3.37212,0.327229 5.43892,0.163614 z m 90.93876,-0.27269 c 0.16316,0.163615 -0.87023,1.527064 -2.39313,2.99959 -1.5229,1.472525 -3.0458,3.272278 -3.37214,3.926735 -0.81583,1.581601 -0.87022,10.307679 -0.0544,10.79852 1.95801,1.254374 -0.87023,1.417988 -19.30817,1.308913 l -19.85207,-0.163615 -0.16316,-8.835153 c -0.10875,-7.85347 -0.0544,-8.889691 0.87023,-9.544147 0.81583,-0.599918 5.38453,-0.763533 22.46275,-0.81807 11.80244,0 21.64689,0.163613 21.81007,0.327227 z m 179.64755,6.980862 c 0.10875,4.526654 -0.0544,6.980862 -0.43511,6.980862 -0.32634,0 -0.59828,-0.327227 -0.59828,-0.763531 0,-0.490842 -0.76145,-1.199836 -1.68607,-1.581601 -0.979,-0.436305 -1.74045,-0.981685 -1.74045,-1.199836 0,-0.81807 -8.21278,-0.436304 -10.55152,0.436303 -1.25095,0.490843 -2.77385,1.036222 -3.31773,1.199837 -0.54389,0.218151 -0.979,0.599917 -0.979,0.872607 0,0.27269 -0.38073,0.490841 -0.81584,0.490841 -1.0334,0 -4.89504,3.872198 -4.89504,4.908419 0,0.708995 -10.49711,0.81807 -70.81474,0.81807 -38.94268,0 -70.81476,-0.109075 -70.81476,-0.218152 0,-0.109075 1.19656,-1.472526 2.71946,-2.999589 3.20896,-3.272279 4.13359,-4.85388 4.13359,-6.817247 0,-1.036223 0.32634,-1.417989 1.14217,-1.417989 1.03339,0 1.14217,-0.381765 1.14217,-3.381355 0,-2.672361 0.21756,-3.544968 0.97901,-4.035811 0.70706,-0.381765 26.65071,-0.54538 78.70118,-0.436304 l 77.6678,0.109075 0.16316,7.0354 z m 53.68214,2.563286 0.16318,9.598685 -26.59632,0 c -17.35017,0 -26.54194,-0.218152 -26.54194,-0.599918 0,-0.27269 0.38073,-0.54538 0.81584,-0.54538 0.76145,0 0.87022,-1.36345 0.87022,-8.780615 0,-4.85388 0.16318,-8.94423 0.38073,-9.162381 0.21756,-0.218153 11.69368,-0.327229 25.56293,-0.218153 l 25.1822,0.109075 0.16316,9.598686 z m 17.29578,-9.271458 c 0.76145,0.381766 1.08779,1.199836 1.08779,2.563286 0,2.017905 -2.12119,7.144476 -2.99142,7.144476 -0.21755,0 -0.43511,0.327227 -0.43511,0.763531 0,0.927146 -4.13357,5.344722 -6.63549,7.144476 -1.08777,0.708994 -2.66506,1.254374 -3.86162,1.254374 l -2.0668,0 0,-9.107843 c 0,-8.12616 0.10875,-9.21692 0.97901,-9.7623 1.35973,-0.763531 12.50951,-0.763531 13.92364,0 z m 51.23463,9.271458 0.16316,9.598685 -25.72608,0 c -27.30339,0 -27.08584,0 -24.7471,-2.617823 1.41413,-1.581602 3.58969,-5.890103 3.58969,-7.144475 0,-0.599919 0.27195,-1.199837 0.59829,-1.417989 0.27195,-0.163614 0.54388,-1.963367 0.54388,-3.926735 0,-1.963367 0.16318,-3.763121 0.38073,-3.981272 0.21756,-0.218153 10.44273,-0.327229 22.6803,-0.218153 l 22.35397,0.109075 0.16316,9.598686 z m 9.24616,-9.162382 c 6.5811,-0.381766 42.04286,-0.763531 43.23943,-0.436303 1.30535,0.327227 1.30535,0.381766 1.30535,9.762299 l 0,9.435071 -15.99044,0 c -14.84825,0 -15.99042,-0.05454 -15.99042,-0.981684 0,-0.54538 -0.65268,-2.181519 -1.46852,-3.599506 -0.76145,-1.417989 -1.57728,-3.054127 -1.74045,-3.599507 -0.21756,-0.54538 -0.59828,-0.981684 -0.87022,-0.981684 -0.27195,0 -0.48951,-0.327229 -0.48951,-0.763532 0,-0.381765 -0.43512,-1.254374 -0.979,-1.854292 -0.54389,-0.599917 -1.35973,-1.799753 -1.84924,-2.672361 -0.81584,-1.63614 -2.88263,-2.18152 -2.88263,-0.763531 0,1.199835 1.25095,3.76312 1.79485,3.76312 0.27194,0 0.4895,0.490842 0.4895,1.145299 0,0.654455 0.27195,1.145297 0.59828,1.145297 0.27195,0 0.5439,0.327227 0.5439,0.708994 0,0.381766 0.54389,1.36345 1.14217,2.126981 0.59828,0.81807 1.14217,2.017906 1.14217,2.7269 0,0.654455 0.27195,1.417987 0.59828,1.581601 0.27195,0.218151 0.54389,0.763531 0.54389,1.199835 0,0.654456 -1.41411,0.81807 -7.99521,0.81807 l -7.99521,0 0,-9.325995 c 0,-5.181108 0.16316,-9.544148 0.38072,-9.762299 0.21756,-0.218153 1.19656,-0.218153 2.17558,0 0.92461,0.27269 2.88262,0.381766 4.29673,0.327227 z m 93.22311,-0.381766 c 0.16318,0.163615 -0.87022,1.527064 -2.39312,2.99959 -1.5229,1.472525 -3.0458,3.272278 -3.37213,3.926735 -0.81584,1.581601 -0.87024,10.307679 -0.0544,10.79852 1.958,1.199836 -0.97902,1.417988 -19.41695,1.417988 l -20.01524,0 0,-9.325995 c 0,-5.181108 0.16318,-9.544148 0.38073,-9.762299 0.4895,-0.490843 44.43598,-0.490843 44.87109,-0.05454 z m 178.72294,0.599919 c 0.81584,0.81807 1.0334,1.854291 1.0334,5.726488 0,6.380944 -0.16316,6.76271 -2.5019,5.508336 -0.97901,-0.54538 -1.84924,-1.199836 -1.95801,-1.417987 -0.38073,-0.763533 -8.32155,-0.436304 -10.66029,0.436303 -1.25095,0.490843 -2.77385,1.036222 -3.31774,1.199837 -0.5439,0.218151 -0.97901,0.599917 -0.97901,0.872607 0,0.27269 -0.38072,0.490841 -0.81584,0.490841 -1.0334,0 -4.89502,3.872198 -4.89502,4.908419 0,0.708995 -10.49713,0.81807 -70.81476,0.81807 -38.94267,0 -70.81474,-0.109075 -70.81474,-0.218152 0,-0.109075 1.19656,-1.472526 2.71946,-2.999589 3.15457,-3.217741 4.13357,-4.85388 4.13357,-6.653634 0,-0.708993 0.4895,-1.63614 1.14218,-2.017906 0.92461,-0.599917 1.14217,-1.363448 1.14217,-3.763121 0,-1.690677 0.16316,-3.217741 0.38073,-3.435892 0.21755,-0.218153 35.18982,-0.381766 77.77657,-0.381766 71.19547,0 77.45023,0.05454 78.42923,0.927146 z m 53.62776,-0.327229 c 0.97901,0.54538 1.08779,1.254374 1.08779,9.707762 l 0,9.162381 -26.10683,0 -26.1612,0 0.21755,-8.998767 c 0.10875,-5.072032 0.43512,-9.380533 0.76145,-9.7623 0.76145,-0.927145 48.46079,-1.036221 50.20124,-0.109075 z m 9.13739,0 c 0.97901,0.54538 1.08778,1.254374 1.08778,9.707762 l 0,9.162381 -2.82823,0 -2.88263,0 0,-9.325995 c 0,-5.181108 0.16316,-9.544148 0.38073,-9.762299 0.59827,-0.599918 2.9914,-0.436304 4.24235,0.218151 z m -625.9654,0.81807 c 0,0.490843 -0.27195,0.872608 -0.5439,0.872608 -0.32633,0 -0.59828,-0.381765 -0.59828,-0.872608 0,-0.436304 0.27195,-0.872607 0.59828,-0.872607 0.27195,0 0.5439,0.436303 0.5439,0.872607 z m -5.27576,2.7269 c 1.46851,1.417987 0.70706,3.272278 -2.44752,6.435482 -1.68606,1.745215 -3.48091,3.163202 -3.97041,3.163202 -0.4895,0 -0.87022,0.218153 -0.87022,0.436304 0,0.436305 -1.57729,1.145299 -5.33014,2.399672 -2.0124,0.654455 -2.22996,0.599918 -3.26336,-0.599918 -0.76145,-0.872608 -0.979,-1.690678 -0.70705,-2.726899 0.38072,-1.690677 5.05818,-6.380945 6.25475,-6.380945 0.43511,0 0.76145,-0.27269 0.76145,-0.599917 0,-0.27269 0.48951,-0.54538 1.14217,-0.54538 0.65268,0 1.14218,-0.27269 1.14218,-0.599917 0,-0.27269 0.70706,-0.54538 1.57728,-0.54538 0.87023,0 1.95802,-0.27269 2.44752,-0.599918 1.14217,-0.708995 2.44751,-0.708995 3.26335,0.163614 z m 404.32938,0 c 1.46852,1.417987 0.70707,3.272278 -2.44751,6.435482 -1.68607,1.745215 -3.48091,3.163202 -3.97041,3.163202 -0.48951,0 -0.87023,0.218153 -0.87023,0.436304 0,0.436305 -1.57728,1.145299 -5.33015,2.399672 -2.0124,0.654455 -2.22996,0.599918 -3.26335,-0.599918 -0.76145,-0.872608 -0.97901,-1.690678 -0.70706,-2.726899 0.38073,-1.690677 5.0582,-6.380945 6.25476,-6.380945 0.43512,0 0.76145,-0.27269 0.76145,-0.599917 0,-0.27269 0.4895,-0.54538 1.14218,-0.54538 0.65266,0 1.14217,-0.27269 1.14217,-0.599917 0,-0.27269 0.70705,-0.54538 1.57728,-0.54538 0.87024,0 1.95801,-0.27269 2.44752,-0.599918 1.14218,-0.708995 2.44752,-0.708995 3.26335,0.163614 z M 46.992276,85.317938 c 0.271946,1.417989 0.598281,3.381356 0.761449,4.417578 l 0.326336,1.854291 -5.166975,0 c -4.84064,0 -5.221365,-0.109075 -5.221365,-1.145298 0,-0.654456 0.217558,-1.145297 0.489503,-1.145297 0.271946,0 0.815839,-0.708994 1.250952,-1.527064 0.924617,-1.690677 5.656478,-5.399261 6.526705,-5.126571 0.326336,0.109075 0.761449,1.308913 1.033395,2.672361 z m 8.103992,-2.345132 c 0.217557,0.327227 0.870227,0.599917 1.41412,0.599917 1.250952,0 6.309148,4.853881 6.309148,6.053716 0,0.436304 0.271946,0.81807 0.598281,0.81807 0.271947,0 0.543893,0.27269 0.543893,0.599918 0,0.381766 -2.175569,0.54538 -6.145981,0.436305 l -6.145981,-0.163615 -0.435114,-2.617823 c -1.250951,-7.0354 -1.414118,-6.271868 1.196563,-6.271868 1.305341,0 2.501903,0.27269 2.665071,0.54538 z M 16.044817,97.043605 c 0.924616,1.581602 1.849232,3.217745 2.066789,3.708585 0.979007,2.12698 8.647885,9.0533 11.74807,10.52583 1.794843,0.87261 3.263352,1.69068 3.263352,1.85429 0,0.10908 -6.689873,0.21815 -14.848254,0.21815 l -14.8482539,0 0,-9.7623 0,-9.762296 5.49331,0.163614 5.4933099,0.163615 1.631677,2.890512 z m 16.860654,-0.436304 c 1.740454,3.163204 4.459915,5.835569 7.5601,7.417169 2.284346,1.19983 4.079191,1.69068 4.079191,1.09076 0,-0.16362 0.163168,-0.65446 0.326335,-1.1453 0.271946,-0.59992 0.05439,-0.92715 -0.543892,-0.92715 -0.489503,0 -0.924616,-0.27269 -0.924616,-0.59991 0,-0.27269 -0.380725,-0.54538 -0.815839,-0.54538 -2.175567,0 -6.254758,-6.217334 -4.949417,-7.635322 0.271946,-0.218151 2.882627,-0.327228 5.819644,-0.27269 5.275754,0.163615 5.384533,0.218152 5.5477,1.581602 0.05439,0.81807 0.380725,1.963368 0.65267,2.617824 0.489504,1.036221 0.652671,2.017906 1.522899,8.017086 0.217556,1.25437 0.65267,2.45421 0.979005,2.67236 0.489503,0.32723 0.380725,0.70899 -0.217557,1.30891 -1.740455,1.74522 -13.162189,1.1453 -17.241379,-0.92715 -0.543892,-0.27269 -1.359731,-0.49084 -1.849233,-0.49084 -0.489503,0 -0.870228,-0.27269 -0.870228,-0.59992 0,-0.27269 -0.380723,-0.54538 -0.815837,-0.54538 -1.142174,0 -6.744262,-5.61741 -8.212771,-8.180694 -0.70706,-1.199835 -1.250952,-2.945051 -1.250952,-3.926735 l 0,-1.690677 4.895029,0.163614 4.949418,0.163615 1.35973,2.454208 z m 31.545741,-1.908828 c 0.815839,0.981683 -0.217556,5.562877 -1.740455,7.853467 -0.598281,0.81807 -1.033395,1.69068 -1.033395,1.90883 0,0.709 -4.024801,4.3085 -4.840639,4.3085 -0.489503,0 -0.870228,-0.49084 -0.870228,-1.1453 0,-0.65445 -0.217556,-1.14529 -0.489502,-1.14529 -0.326335,0 -0.70706,-1.09076 -0.870228,-2.45421 -0.598281,-4.908421 -1.087783,-7.035402 -1.631676,-7.689859 -0.326335,-0.381765 -0.435113,-1.09076 -0.217556,-1.581601 0.435114,-1.199836 10.714673,-1.254373 11.693679,-0.05454 z m 101.163928,8.889687 0,9.7623 -54.22604,0 c -31.056239,0 -54.280431,-0.21815 -54.280431,-0.49084 0,-0.27269 0.435114,-0.65445 0.979006,-0.81807 4.78625,-1.52706 12.727074,-10.36222 12.727074,-14.125336 0,-0.54538 0.326337,-1.63614 0.70706,-2.508748 l 0.70706,-1.527063 46.720331,0 46.66594,0 0,9.707757 z m 68.42162,0.16362 0.16318,9.59868 -33.17743,0 -33.12302,0 0,-1.74521 c 0,-0.92715 0.27195,-1.69068 0.59827,-1.69068 0.27195,0 0.5439,-0.76353 0.5439,-1.74522 0,-0.92714 0.27194,-1.69067 0.59828,-1.69067 0.27195,0 0.5439,-0.49084 0.5439,-1.1453 0,-0.65446 0.27194,-1.1453 0.59827,-1.1453 0.27195,0 0.5439,-0.38176 0.5439,-0.87261 0,-0.49084 1.84923,-2.78143 4.13358,-5.126566 l 4.13357,-4.253964 27.14023,0.109075 27.14021,0.109075 0.16316,9.59869 z m 18.22039,-8.944232 c 0.48951,1.254373 -0.76145,4.526653 -2.88263,7.635322 -1.95801,2.89051 -6.36354,7.4717 -7.12499,7.4717 -0.27195,0 -1.30533,0.76353 -2.28435,1.69068 -3.37212,3.21774 -3.53528,2.89051 -3.53528,-8.01709 l 0,-9.707757 7.72326,0 c 6.63549,0 7.77766,0.109075 8.10399,0.927145 z m 34.42837,8.780612 0,9.7623 -14.84825,0 -14.84826,0 0,-3.43589 c 0,-1.90883 -0.27194,-3.43589 -0.54389,-3.43589 -0.32634,0 -0.59829,-1.52707 -0.59829,-3.4359 0,-1.90882 0.27195,-3.435889 0.59829,-3.435889 0.27195,0 0.54389,-1.308912 0.54389,-2.890513 l 0,-2.835975 14.84826,0 14.84825,0 0,9.707757 z m 202.05591,-6.544555 c 0.16316,3.054125 1.46851,5.181105 3.91603,6.490025 0.70706,0.38176 3.31773,0.65445 5.87403,0.65445 4.56869,0 5.98282,-0.38176 10.27957,-2.89051 1.68606,-0.98168 5.16697,-4.526655 5.16697,-5.290186 0,-0.27269 0.38073,-0.872608 0.81584,-1.308911 0.70705,-0.708995 5.11258,-0.81807 27.41216,-0.81807 l 26.59632,0 0,9.762297 0,9.70776 -139.18199,-0.16361 -139.23638,-0.10908 -0.16316,-8.83515 c -0.10875,-5.999177 0.0544,-9.053305 0.54389,-9.544146 0.5439,-0.708995 15.71848,-0.81807 99.20592,-0.654456 l 98.60764,0.109075 0.16316,2.890512 z m 148.59132,6.544555 0,9.7623 -33.12303,0 -33.12303,0 0,-1.41798 c 0,-0.76354 0.27195,-1.52707 0.59829,-1.74522 0.27195,-0.16361 0.54388,-1.09076 0.54388,-2.01791 0,-0.92714 0.27195,-1.69067 0.59829,-1.69067 0.27195,0 0.54389,-0.49084 0.54389,-1.1453 0,-0.65446 0.27195,-1.1453 0.59829,-1.1453 0.27193,0 0.54388,-0.38176 0.54388,-0.87261 0,-0.49084 1.84924,-2.78143 4.13359,-5.126566 l 4.13358,-4.199426 27.30338,-0.05454 27.24899,-0.05454 0,9.707762 z m 18.11161,-8.780612 c 0.4895,1.254373 -0.76145,4.526653 -2.88263,7.635322 -1.95801,2.89051 -6.36353,7.4717 -7.12498,7.4717 -0.27195,0 -1.30535,0.76353 -2.28435,1.69068 -3.37214,3.21774 -3.5353,2.89051 -3.5353,-8.01709 l 0,-9.707757 7.72327,0 c 6.63548,0 7.77765,0.109075 8.10399,0.927145 z m 35.46176,8.944232 0.16317,9.59868 -15.44653,0 -15.44654,0 0,-3.43589 c 0,-1.90883 -0.27195,-3.43589 -0.54389,-3.43589 -0.32633,0 -0.59828,-1.52707 -0.59828,-3.4359 0,-1.90882 0.27195,-3.435889 0.59828,-3.435889 0.27194,0 0.54389,-1.308912 0.54389,-2.890513 l 0,-2.835975 15.28336,0.109075 15.28338,0.163615 0.16316,9.598687 z m 202.1647,-6.708175 c 0.16316,3.054125 1.4685,5.181105 3.91601,6.490025 0.70706,0.38176 3.31775,0.65445 5.87404,0.65445 4.5687,0 5.98281,-0.38176 10.27956,-2.89051 1.68606,-0.98168 5.16697,-4.526655 5.16697,-5.290186 0,-0.27269 0.38073,-0.872608 0.81584,-1.308911 0.70706,-0.708995 4.89503,-0.81807 27.249,-0.654456 l 26.48754,0.109075 0.16317,9.598688 0.16316,9.59868 -139.39954,0 -139.34515,0 0,-9.7623 0,-9.707758 99.20592,0.163613 99.2603,0.109075 0.16318,2.890513 z m 89.08952,6.708175 0.16316,9.59868 -2.88262,0 -2.88263,0 0,-9.7623 0,-9.762296 2.71946,0.163614 2.71945,0.163615 0.16318,9.598687 z m -729.74002,6.76271 c 0,0.65445 -0.38072,1.5816 -0.81584,2.0179 -0.92462,0.92715 -2.61068,1.09076 -2.61068,0.21816 0,-0.27269 0.21756,-0.54538 0.4895,-0.54538 0.27195,0 0.81583,-0.65446 1.25096,-1.41799 0.92461,-1.74522 1.68606,-1.85429 1.68606,-0.27269 z m 403.1872,0 c 0,0.65445 -0.38072,1.5816 -0.81584,2.0179 -0.92461,0.92715 -2.61067,1.09076 -2.61067,0.21816 0,-0.27269 0.21755,-0.54538 0.4895,-0.54538 0.27195,0 0.81584,-0.65446 1.25095,-1.41799 0.92461,-1.74522 1.68606,-1.85429 1.68606,-0.27269 z m -405.47155,5.67195 c 0,0.32723 -0.27195,0.59992 -0.54389,0.59992 -0.32633,0 -0.59828,0.32722 -0.59828,0.76353 0,0.98168 -4.18797,5.39926 -6.85304,7.25355 -1.08779,0.76353 -2.33874,1.74521 -2.77385,2.12698 -0.97901,0.98168 -1.79485,0.92715 -1.79485,-0.10913 0,-0.49084 0.27195,-0.8726 0.59829,-0.8726 0.27195,0 0.54389,-0.49085 0.54389,-1.1453 0,-0.65446 0.27195,-1.1453 0.59828,-1.1453 0.27194,0 0.54389,-0.32723 0.54389,-0.76353 0,-0.4363 1.35974,-2.23606 2.99141,-3.98127 2.61068,-2.78144 3.31774,-3.21774 5.16698,-3.21774 1.14217,-0.0545 2.12117,0.21815 2.12117,0.49084 z m 403.18721,0 c 0,0.32723 -0.27195,0.59992 -0.5439,0.59992 -0.32633,0 -0.59827,0.32722 -0.59827,0.76353 0,0.98168 -4.18798,5.39926 -6.85305,7.25355 -1.08778,0.76353 -2.33873,1.74521 -2.77385,2.12698 -0.979,0.98168 -1.79484,0.92715 -1.79484,-0.10913 0,-0.49084 0.27195,-0.8726 0.59828,-0.8726 0.27195,0 0.5439,-0.49085 0.5439,-1.1453 0,-0.65446 0.27195,-1.1453 0.59827,-1.1453 0.27195,0 0.5439,-0.32723 0.5439,-0.76353 0,-0.4363 1.35973,-2.23606 2.9914,-3.98127 2.61069,-2.78144 3.31775,-3.21774 5.16698,-3.21774 1.14217,-0.0545 2.12118,0.21815 2.12118,0.49084 z"/>
	<path d="m 199.33645,34.215848 c -2.17556,0.327227 -2.88262,1.472526 -2.88262,4.690267 0,2.945051 0.38072,3.654045 2.71946,5.017493 1.52288,0.872609 4.13357,0.927147 4.13357,0.109075 0,-0.27269 0.38073,-0.54538 0.81584,-0.54538 1.14217,0 2.61069,-2.563284 2.61069,-4.581189 0,-3.217741 -3.20897,-5.290185 -7.39694,-4.690267 z"/>
	<path d="m 602.52366,34.215848 c -2.17557,0.327227 -2.88264,1.472526 -2.88264,4.690267 0,2.945051 0.38073,3.654045 2.71947,5.017493 1.5229,0.872609 4.13358,0.927147 4.13358,0.109075 0,-0.27269 0.38073,-0.54538 0.81584,-0.54538 1.14218,0 2.61068,-2.563284 2.61068,-4.581189 0,-3.217741 -3.20897,-5.290185 -7.39693,-4.690267 z"/>
</svg>
